<mxfile host="Electron" agent="Mozilla/5.0 (Windows NT 10.0; Win64; x64) AppleWebKit/537.36 (KHTML, like Gecko) draw.io/24.7.8 Chrome/128.0.6613.36 Electron/32.0.1 Safari/537.36" version="24.7.8">
  <diagram id="C5RBs43oDa-KdzZeNtuy" name="Page-1">
    <mxGraphModel dx="1562" dy="917" grid="1" gridSize="10" guides="1" tooltips="1" connect="1" arrows="1" fold="1" page="1" pageScale="1" pageWidth="827" pageHeight="1169" math="0" shadow="0">
      <root>
        <mxCell id="WIyWlLk6GJQsqaUBKTNV-0" />
        <mxCell id="WIyWlLk6GJQsqaUBKTNV-1" parent="WIyWlLk6GJQsqaUBKTNV-0" />
        <mxCell id="LE8xdL_ExhfQRllUuAMV-0" value="" style="shape=table;startSize=0;container=1;collapsible=0;childLayout=tableLayout;fontSize=16;" vertex="1" parent="WIyWlLk6GJQsqaUBKTNV-1">
          <mxGeometry x="510" y="30" width="300" height="240" as="geometry" />
        </mxCell>
        <mxCell id="LE8xdL_ExhfQRllUuAMV-1" value="" style="shape=tableRow;horizontal=0;startSize=0;swimlaneHead=0;swimlaneBody=0;strokeColor=inherit;top=0;left=0;bottom=0;right=0;collapsible=0;dropTarget=0;fillColor=none;points=[[0,0.5],[1,0.5]];portConstraint=eastwest;fontSize=16;" vertex="1" parent="LE8xdL_ExhfQRllUuAMV-0">
          <mxGeometry width="300" height="60" as="geometry" />
        </mxCell>
        <mxCell id="LE8xdL_ExhfQRllUuAMV-2" value="" style="shape=partialRectangle;html=1;whiteSpace=wrap;connectable=0;strokeColor=#B20000;overflow=hidden;fillColor=#e51400;top=0;left=0;bottom=0;right=0;pointerEvents=1;fontSize=16;fontColor=#ffffff;" vertex="1" parent="LE8xdL_ExhfQRllUuAMV-1">
          <mxGeometry width="76" height="60" as="geometry">
            <mxRectangle width="76" height="60" as="alternateBounds" />
          </mxGeometry>
        </mxCell>
        <mxCell id="LE8xdL_ExhfQRllUuAMV-3" value="SECore-Bin" style="shape=partialRectangle;html=1;whiteSpace=wrap;connectable=0;strokeColor=inherit;overflow=hidden;fillColor=none;top=0;left=0;bottom=0;right=0;pointerEvents=1;fontSize=16;" vertex="1" parent="LE8xdL_ExhfQRllUuAMV-1">
          <mxGeometry x="76" width="224" height="60" as="geometry">
            <mxRectangle width="224" height="60" as="alternateBounds" />
          </mxGeometry>
        </mxCell>
        <mxCell id="LE8xdL_ExhfQRllUuAMV-4" value="" style="shape=tableRow;horizontal=0;startSize=0;swimlaneHead=0;swimlaneBody=0;strokeColor=inherit;top=0;left=0;bottom=0;right=0;collapsible=0;dropTarget=0;fillColor=none;points=[[0,0.5],[1,0.5]];portConstraint=eastwest;fontSize=16;" vertex="1" parent="LE8xdL_ExhfQRllUuAMV-0">
          <mxGeometry y="60" width="300" height="59" as="geometry" />
        </mxCell>
        <mxCell id="LE8xdL_ExhfQRllUuAMV-5" value="" style="shape=partialRectangle;html=1;whiteSpace=wrap;connectable=0;strokeColor=#006EAF;overflow=hidden;fillColor=#1ba1e2;top=0;left=0;bottom=0;right=0;pointerEvents=1;fontSize=16;fontColor=#ffffff;" vertex="1" parent="LE8xdL_ExhfQRllUuAMV-4">
          <mxGeometry width="76" height="59" as="geometry">
            <mxRectangle width="76" height="59" as="alternateBounds" />
          </mxGeometry>
        </mxCell>
        <mxCell id="LE8xdL_ExhfQRllUuAMV-6" value="SBSFU" style="shape=partialRectangle;html=1;whiteSpace=wrap;connectable=0;strokeColor=inherit;overflow=hidden;fillColor=none;top=0;left=0;bottom=0;right=0;pointerEvents=1;fontSize=16;" vertex="1" parent="LE8xdL_ExhfQRllUuAMV-4">
          <mxGeometry x="76" width="224" height="59" as="geometry">
            <mxRectangle width="224" height="59" as="alternateBounds" />
          </mxGeometry>
        </mxCell>
        <mxCell id="LE8xdL_ExhfQRllUuAMV-7" value="" style="shape=tableRow;horizontal=0;startSize=0;swimlaneHead=0;swimlaneBody=0;strokeColor=inherit;top=0;left=0;bottom=0;right=0;collapsible=0;dropTarget=0;fillColor=none;points=[[0,0.5],[1,0.5]];portConstraint=eastwest;fontSize=16;" vertex="1" parent="LE8xdL_ExhfQRllUuAMV-0">
          <mxGeometry y="119" width="300" height="61" as="geometry" />
        </mxCell>
        <mxCell id="LE8xdL_ExhfQRllUuAMV-8" value="" style="shape=partialRectangle;html=1;whiteSpace=wrap;connectable=0;strokeColor=#B09500;overflow=hidden;fillColor=#e3c800;top=0;left=0;bottom=0;right=0;pointerEvents=1;fontSize=16;fontColor=#000000;" vertex="1" parent="LE8xdL_ExhfQRllUuAMV-7">
          <mxGeometry width="76" height="61" as="geometry">
            <mxRectangle width="76" height="61" as="alternateBounds" />
          </mxGeometry>
        </mxCell>
        <mxCell id="LE8xdL_ExhfQRllUuAMV-9" value="Data Storage" style="shape=partialRectangle;html=1;whiteSpace=wrap;connectable=0;strokeColor=inherit;overflow=hidden;fillColor=none;top=0;left=0;bottom=0;right=0;pointerEvents=1;fontSize=16;" vertex="1" parent="LE8xdL_ExhfQRllUuAMV-7">
          <mxGeometry x="76" width="224" height="61" as="geometry">
            <mxRectangle width="224" height="61" as="alternateBounds" />
          </mxGeometry>
        </mxCell>
        <mxCell id="LE8xdL_ExhfQRllUuAMV-10" style="shape=tableRow;horizontal=0;startSize=0;swimlaneHead=0;swimlaneBody=0;strokeColor=inherit;top=0;left=0;bottom=0;right=0;collapsible=0;dropTarget=0;fillColor=none;points=[[0,0.5],[1,0.5]];portConstraint=eastwest;fontSize=16;" vertex="1" parent="LE8xdL_ExhfQRllUuAMV-0">
          <mxGeometry y="180" width="300" height="60" as="geometry" />
        </mxCell>
        <mxCell id="LE8xdL_ExhfQRllUuAMV-11" value="" style="shape=partialRectangle;html=1;whiteSpace=wrap;connectable=0;strokeColor=#2D7600;overflow=hidden;fillColor=#60a917;top=0;left=0;bottom=0;right=0;pointerEvents=1;fontSize=16;fontColor=#ffffff;" vertex="1" parent="LE8xdL_ExhfQRllUuAMV-10">
          <mxGeometry width="76" height="60" as="geometry">
            <mxRectangle width="76" height="60" as="alternateBounds" />
          </mxGeometry>
        </mxCell>
        <mxCell id="LE8xdL_ExhfQRllUuAMV-12" value="TIS-Software" style="shape=partialRectangle;html=1;whiteSpace=wrap;connectable=0;strokeColor=inherit;overflow=hidden;fillColor=none;top=0;left=0;bottom=0;right=0;pointerEvents=1;fontSize=16;" vertex="1" parent="LE8xdL_ExhfQRllUuAMV-10">
          <mxGeometry x="76" width="224" height="60" as="geometry">
            <mxRectangle width="224" height="60" as="alternateBounds" />
          </mxGeometry>
        </mxCell>
        <mxCell id="LE8xdL_ExhfQRllUuAMV-13" value="" style="shape=table;startSize=0;container=1;collapsible=0;childLayout=tableLayout;fontSize=16;movable=1;resizable=1;rotatable=1;deletable=1;editable=1;locked=0;connectable=1;horizontal=1;" vertex="1" parent="WIyWlLk6GJQsqaUBKTNV-1">
          <mxGeometry x="10" y="30" width="480" height="650" as="geometry" />
        </mxCell>
        <mxCell id="LE8xdL_ExhfQRllUuAMV-14" value="" style="shape=tableRow;horizontal=0;startSize=0;swimlaneHead=0;swimlaneBody=0;strokeColor=inherit;top=0;left=0;bottom=0;right=0;collapsible=0;dropTarget=0;fillColor=none;points=[[0,0.5],[1,0.5]];portConstraint=eastwest;fontSize=16;movable=1;resizable=1;rotatable=1;deletable=1;editable=1;locked=0;connectable=1;" vertex="1" parent="LE8xdL_ExhfQRllUuAMV-13">
          <mxGeometry width="480" height="22" as="geometry" />
        </mxCell>
        <mxCell id="LE8xdL_ExhfQRllUuAMV-15" value="Sector 0" style="shape=partialRectangle;html=1;whiteSpace=wrap;connectable=1;strokeColor=inherit;overflow=hidden;fillColor=none;top=0;left=0;bottom=0;right=0;pointerEvents=1;fontSize=16;movable=1;resizable=1;rotatable=1;deletable=1;editable=1;locked=0;rowspan=6;colspan=1;flipV=1;flipH=1;horizontal=0;" vertex="1" parent="LE8xdL_ExhfQRllUuAMV-14">
          <mxGeometry width="26" height="170" as="geometry">
            <mxRectangle width="26" height="22" as="alternateBounds" />
          </mxGeometry>
        </mxCell>
        <mxCell id="LE8xdL_ExhfQRllUuAMV-16" value="Adress" style="shape=partialRectangle;html=1;whiteSpace=wrap;connectable=1;strokeColor=inherit;overflow=hidden;fillColor=none;top=0;left=0;bottom=0;right=0;pointerEvents=1;fontSize=16;movable=1;resizable=1;rotatable=1;deletable=1;editable=1;locked=0;" vertex="1" parent="LE8xdL_ExhfQRllUuAMV-14">
          <mxGeometry x="26" width="104" height="22" as="geometry">
            <mxRectangle width="104" height="22" as="alternateBounds" />
          </mxGeometry>
        </mxCell>
        <mxCell id="LE8xdL_ExhfQRllUuAMV-17" value="Size" style="shape=partialRectangle;html=1;whiteSpace=wrap;connectable=1;strokeColor=inherit;overflow=hidden;fillColor=none;top=0;left=0;bottom=0;right=0;pointerEvents=1;fontSize=16;movable=1;resizable=1;rotatable=1;deletable=1;editable=1;locked=0;" vertex="1" parent="LE8xdL_ExhfQRllUuAMV-14">
          <mxGeometry x="130" width="60" height="22" as="geometry">
            <mxRectangle width="60" height="22" as="alternateBounds" />
          </mxGeometry>
        </mxCell>
        <mxCell id="LE8xdL_ExhfQRllUuAMV-18" value="Name" style="shape=partialRectangle;html=1;whiteSpace=wrap;connectable=1;strokeColor=inherit;overflow=hidden;fillColor=none;top=0;left=0;bottom=0;right=0;pointerEvents=1;fontSize=16;movable=1;resizable=1;rotatable=1;deletable=1;editable=1;locked=0;" vertex="1" parent="LE8xdL_ExhfQRllUuAMV-14">
          <mxGeometry x="190" width="290" height="22" as="geometry">
            <mxRectangle width="290" height="22" as="alternateBounds" />
          </mxGeometry>
        </mxCell>
        <mxCell id="LE8xdL_ExhfQRllUuAMV-19" value="" style="shape=tableRow;horizontal=0;startSize=0;swimlaneHead=0;swimlaneBody=0;strokeColor=inherit;top=0;left=0;bottom=0;right=0;collapsible=0;dropTarget=0;fillColor=none;points=[[0,0.5],[1,0.5]];portConstraint=eastwest;fontSize=16;movable=1;resizable=1;rotatable=1;deletable=1;editable=1;locked=0;connectable=1;" vertex="1" parent="LE8xdL_ExhfQRllUuAMV-13">
          <mxGeometry y="22" width="480" height="20" as="geometry" />
        </mxCell>
        <mxCell id="LE8xdL_ExhfQRllUuAMV-20" style="shape=partialRectangle;html=1;whiteSpace=wrap;connectable=1;strokeColor=inherit;overflow=hidden;fillColor=none;top=0;left=0;bottom=0;right=0;pointerEvents=1;fontSize=16;movable=1;resizable=1;rotatable=1;deletable=1;editable=1;locked=0;" vertex="1" visible="0" parent="LE8xdL_ExhfQRllUuAMV-19">
          <mxGeometry width="26" height="20" as="geometry">
            <mxRectangle width="26" height="20" as="alternateBounds" />
          </mxGeometry>
        </mxCell>
        <mxCell id="LE8xdL_ExhfQRllUuAMV-21" value="0x08000000" style="shape=tableRow;horizontal=1;startSize=0;swimlaneHead=0;swimlaneBody=0;strokeColor=inherit;top=0;left=0;bottom=0;right=0;collapsible=0;dropTarget=0;fillColor=none;points=[[0,0.5],[1,0.5]];portConstraint=eastwest;fontSize=16;movable=1;resizable=1;rotatable=1;deletable=1;editable=1;locked=0;connectable=1;" vertex="1" parent="LE8xdL_ExhfQRllUuAMV-19">
          <mxGeometry x="26" width="104" height="20" as="geometry">
            <mxRectangle width="104" height="20" as="alternateBounds" />
          </mxGeometry>
        </mxCell>
        <mxCell id="LE8xdL_ExhfQRllUuAMV-22" style="shape=partialRectangle;html=1;whiteSpace=wrap;connectable=1;strokeColor=inherit;overflow=hidden;fillColor=none;top=0;left=0;bottom=0;right=0;pointerEvents=1;fontSize=16;movable=1;resizable=1;rotatable=1;deletable=1;editable=1;locked=0;" vertex="1" visible="0" parent="LE8xdL_ExhfQRllUuAMV-21">
          <mxGeometry width="20" height="20" as="geometry">
            <mxRectangle width="20" height="20" as="alternateBounds" />
          </mxGeometry>
        </mxCell>
        <mxCell id="LE8xdL_ExhfQRllUuAMV-23" value="512B" style="shape=partialRectangle;html=1;whiteSpace=wrap;connectable=1;strokeColor=inherit;overflow=hidden;fillColor=none;top=0;left=0;bottom=0;right=0;pointerEvents=1;fontSize=16;movable=1;resizable=1;rotatable=1;deletable=1;editable=1;locked=0;" vertex="1" parent="LE8xdL_ExhfQRllUuAMV-19">
          <mxGeometry x="130" width="60" height="20" as="geometry">
            <mxRectangle width="60" height="20" as="alternateBounds" />
          </mxGeometry>
        </mxCell>
        <mxCell id="LE8xdL_ExhfQRllUuAMV-24" value="SBSFU Vector Table" style="shape=partialRectangle;html=1;whiteSpace=wrap;connectable=1;strokeColor=#B20000;overflow=hidden;fillColor=#e51400;top=0;left=0;bottom=0;right=0;pointerEvents=1;fontSize=16;movable=1;resizable=1;rotatable=1;deletable=1;editable=1;locked=0;fontColor=#ffffff;" vertex="1" parent="LE8xdL_ExhfQRllUuAMV-19">
          <mxGeometry x="190" width="290" height="20" as="geometry">
            <mxRectangle width="290" height="20" as="alternateBounds" />
          </mxGeometry>
        </mxCell>
        <mxCell id="LE8xdL_ExhfQRllUuAMV-25" value="" style="shape=partialRectangle;html=1;whiteSpace=wrap;connectable=1;strokeColor=inherit;overflow=hidden;fillColor=none;top=0;left=0;bottom=0;right=0;pointerEvents=1;fontSize=16;movable=1;resizable=1;rotatable=1;deletable=1;editable=1;locked=0;" vertex="1" parent="LE8xdL_ExhfQRllUuAMV-19">
          <mxGeometry x="480" width="NaN" height="20" as="geometry">
            <mxRectangle width="NaN" height="20" as="alternateBounds" />
          </mxGeometry>
        </mxCell>
        <mxCell id="LE8xdL_ExhfQRllUuAMV-26" value="" style="shape=tableRow;horizontal=0;startSize=0;swimlaneHead=0;swimlaneBody=0;strokeColor=inherit;top=0;left=0;bottom=0;right=0;collapsible=0;dropTarget=0;fillColor=none;points=[[0,0.5],[1,0.5]];portConstraint=eastwest;fontSize=16;movable=1;resizable=1;rotatable=1;deletable=1;editable=1;locked=0;connectable=1;" vertex="1" parent="LE8xdL_ExhfQRllUuAMV-13">
          <mxGeometry y="42" width="480" height="23" as="geometry" />
        </mxCell>
        <mxCell id="LE8xdL_ExhfQRllUuAMV-27" style="shape=partialRectangle;html=1;whiteSpace=wrap;connectable=1;strokeColor=inherit;overflow=hidden;fillColor=none;top=0;left=0;bottom=0;right=0;pointerEvents=1;fontSize=16;movable=1;resizable=1;rotatable=1;deletable=1;editable=1;locked=0;" vertex="1" visible="0" parent="LE8xdL_ExhfQRllUuAMV-26">
          <mxGeometry width="26" height="23" as="geometry">
            <mxRectangle width="26" height="23" as="alternateBounds" />
          </mxGeometry>
        </mxCell>
        <mxCell id="LE8xdL_ExhfQRllUuAMV-28" value="0x08000200" style="shape=partialRectangle;html=1;whiteSpace=wrap;connectable=1;strokeColor=inherit;overflow=hidden;fillColor=none;top=0;left=0;bottom=0;right=0;pointerEvents=1;fontSize=16;movable=1;resizable=1;rotatable=1;deletable=1;editable=1;locked=0;" vertex="1" parent="LE8xdL_ExhfQRllUuAMV-26">
          <mxGeometry x="26" width="104" height="23" as="geometry">
            <mxRectangle width="104" height="23" as="alternateBounds" />
          </mxGeometry>
        </mxCell>
        <mxCell id="LE8xdL_ExhfQRllUuAMV-29" value="512B" style="shape=partialRectangle;html=1;whiteSpace=wrap;connectable=1;strokeColor=inherit;overflow=hidden;fillColor=none;top=0;left=0;bottom=0;right=0;pointerEvents=1;fontSize=16;movable=1;resizable=1;rotatable=1;deletable=1;editable=1;locked=0;" vertex="1" parent="LE8xdL_ExhfQRllUuAMV-26">
          <mxGeometry x="130" width="60" height="23" as="geometry">
            <mxRectangle width="60" height="23" as="alternateBounds" />
          </mxGeometry>
        </mxCell>
        <mxCell id="LE8xdL_ExhfQRllUuAMV-30" value="SE call gate" style="shape=partialRectangle;html=1;whiteSpace=wrap;connectable=1;strokeColor=#B20000;overflow=hidden;fillColor=#e51400;top=0;left=0;bottom=0;right=0;pointerEvents=1;fontSize=16;movable=1;resizable=1;rotatable=1;deletable=1;editable=1;locked=0;fontColor=#ffffff;" vertex="1" parent="LE8xdL_ExhfQRllUuAMV-26">
          <mxGeometry x="190" width="290" height="23" as="geometry">
            <mxRectangle width="290" height="23" as="alternateBounds" />
          </mxGeometry>
        </mxCell>
        <mxCell id="LE8xdL_ExhfQRllUuAMV-31" style="shape=tableRow;horizontal=0;startSize=0;swimlaneHead=0;swimlaneBody=0;strokeColor=inherit;top=0;left=0;bottom=0;right=0;collapsible=0;dropTarget=0;fillColor=none;points=[[0,0.5],[1,0.5]];portConstraint=eastwest;fontSize=16;movable=1;resizable=1;rotatable=1;deletable=1;editable=1;locked=0;connectable=1;" vertex="1" parent="LE8xdL_ExhfQRllUuAMV-13">
          <mxGeometry y="65" width="480" height="20" as="geometry" />
        </mxCell>
        <mxCell id="LE8xdL_ExhfQRllUuAMV-32" style="shape=partialRectangle;html=1;whiteSpace=wrap;connectable=1;strokeColor=inherit;overflow=hidden;fillColor=none;top=0;left=0;bottom=0;right=0;pointerEvents=1;fontSize=16;movable=1;resizable=1;rotatable=1;deletable=1;editable=1;locked=0;" vertex="1" visible="0" parent="LE8xdL_ExhfQRllUuAMV-31">
          <mxGeometry width="26" height="20" as="geometry">
            <mxRectangle width="26" height="20" as="alternateBounds" />
          </mxGeometry>
        </mxCell>
        <mxCell id="LE8xdL_ExhfQRllUuAMV-33" value="0x08000400" style="shape=partialRectangle;html=1;whiteSpace=wrap;connectable=1;strokeColor=inherit;overflow=hidden;fillColor=none;top=0;left=0;bottom=0;right=0;pointerEvents=1;fontSize=16;movable=1;resizable=1;rotatable=1;deletable=1;editable=1;locked=0;" vertex="1" parent="LE8xdL_ExhfQRllUuAMV-31">
          <mxGeometry x="26" width="104" height="20" as="geometry">
            <mxRectangle width="104" height="20" as="alternateBounds" />
          </mxGeometry>
        </mxCell>
        <mxCell id="LE8xdL_ExhfQRllUuAMV-34" value="256B" style="shape=partialRectangle;html=1;whiteSpace=wrap;connectable=1;strokeColor=inherit;overflow=hidden;fillColor=none;top=0;left=0;bottom=0;right=0;pointerEvents=1;fontSize=16;movable=1;resizable=1;rotatable=1;deletable=1;editable=1;locked=0;" vertex="1" parent="LE8xdL_ExhfQRllUuAMV-31">
          <mxGeometry x="130" width="60" height="20" as="geometry">
            <mxRectangle width="60" height="20" as="alternateBounds" />
          </mxGeometry>
        </mxCell>
        <mxCell id="LE8xdL_ExhfQRllUuAMV-35" value="SE Key Readfunctions" style="shape=partialRectangle;html=1;whiteSpace=wrap;connectable=1;strokeColor=#B20000;overflow=hidden;fillColor=#e51400;top=0;left=0;bottom=0;right=0;pointerEvents=1;fontSize=16;movable=1;resizable=1;rotatable=1;deletable=1;editable=1;locked=0;fontColor=#ffffff;" vertex="1" parent="LE8xdL_ExhfQRllUuAMV-31">
          <mxGeometry x="190" width="290" height="20" as="geometry">
            <mxRectangle width="290" height="20" as="alternateBounds" />
          </mxGeometry>
        </mxCell>
        <mxCell id="LE8xdL_ExhfQRllUuAMV-36" style="shape=tableRow;horizontal=0;startSize=0;swimlaneHead=0;swimlaneBody=0;strokeColor=inherit;top=0;left=0;bottom=0;right=0;collapsible=0;dropTarget=0;fillColor=none;points=[[0,0.5],[1,0.5]];portConstraint=eastwest;fontSize=16;movable=1;resizable=1;rotatable=1;deletable=1;editable=1;locked=0;connectable=1;" vertex="1" parent="LE8xdL_ExhfQRllUuAMV-13">
          <mxGeometry y="85" width="480" height="21" as="geometry" />
        </mxCell>
        <mxCell id="LE8xdL_ExhfQRllUuAMV-37" style="shape=partialRectangle;html=1;whiteSpace=wrap;connectable=1;strokeColor=inherit;overflow=hidden;fillColor=none;top=0;left=0;bottom=0;right=0;pointerEvents=1;fontSize=16;movable=1;resizable=1;rotatable=1;deletable=1;editable=1;locked=0;" vertex="1" visible="0" parent="LE8xdL_ExhfQRllUuAMV-36">
          <mxGeometry width="26" height="21" as="geometry">
            <mxRectangle width="26" height="21" as="alternateBounds" />
          </mxGeometry>
        </mxCell>
        <mxCell id="LE8xdL_ExhfQRllUuAMV-38" value="0x08000500" style="shape=partialRectangle;html=1;whiteSpace=wrap;connectable=1;strokeColor=inherit;overflow=hidden;fillColor=none;top=0;left=0;bottom=0;right=0;pointerEvents=1;fontSize=16;movable=1;resizable=1;rotatable=1;deletable=1;editable=1;locked=0;" vertex="1" parent="LE8xdL_ExhfQRllUuAMV-36">
          <mxGeometry x="26" width="104" height="21" as="geometry">
            <mxRectangle width="104" height="21" as="alternateBounds" />
          </mxGeometry>
        </mxCell>
        <mxCell id="LE8xdL_ExhfQRllUuAMV-39" value="256B" style="shape=partialRectangle;html=1;whiteSpace=wrap;connectable=1;strokeColor=inherit;overflow=hidden;fillColor=none;top=0;left=0;bottom=0;right=0;pointerEvents=1;fontSize=16;movable=1;resizable=1;rotatable=1;deletable=1;editable=1;locked=0;" vertex="1" parent="LE8xdL_ExhfQRllUuAMV-36">
          <mxGeometry x="130" width="60" height="21" as="geometry">
            <mxRectangle width="60" height="21" as="alternateBounds" />
          </mxGeometry>
        </mxCell>
        <mxCell id="LE8xdL_ExhfQRllUuAMV-40" value="SE Startup code" style="shape=partialRectangle;html=1;whiteSpace=wrap;connectable=1;strokeColor=#B20000;overflow=hidden;fillColor=#e51400;top=0;left=0;bottom=0;right=0;pointerEvents=1;fontSize=16;movable=1;resizable=1;rotatable=1;deletable=1;editable=1;locked=0;fontColor=#ffffff;" vertex="1" parent="LE8xdL_ExhfQRllUuAMV-36">
          <mxGeometry x="190" width="290" height="21" as="geometry">
            <mxRectangle width="290" height="21" as="alternateBounds" />
          </mxGeometry>
        </mxCell>
        <mxCell id="LE8xdL_ExhfQRllUuAMV-41" style="shape=tableRow;horizontal=0;startSize=0;swimlaneHead=0;swimlaneBody=0;strokeColor=inherit;top=0;left=0;bottom=0;right=0;collapsible=0;dropTarget=0;fillColor=none;points=[[0,0.5],[1,0.5]];portConstraint=eastwest;fontSize=16;movable=1;resizable=1;rotatable=1;deletable=1;editable=1;locked=0;connectable=1;" vertex="1" parent="LE8xdL_ExhfQRllUuAMV-13">
          <mxGeometry y="106" width="480" height="64" as="geometry" />
        </mxCell>
        <mxCell id="LE8xdL_ExhfQRllUuAMV-42" style="shape=partialRectangle;html=1;whiteSpace=wrap;connectable=1;strokeColor=inherit;overflow=hidden;fillColor=none;top=0;left=0;bottom=0;right=0;pointerEvents=1;fontSize=16;movable=1;resizable=1;rotatable=1;deletable=1;editable=1;locked=0;" vertex="1" visible="0" parent="LE8xdL_ExhfQRllUuAMV-41">
          <mxGeometry width="26" height="64" as="geometry">
            <mxRectangle width="26" height="64" as="alternateBounds" />
          </mxGeometry>
        </mxCell>
        <mxCell id="LE8xdL_ExhfQRllUuAMV-43" value="0x0800600" style="shape=partialRectangle;html=1;whiteSpace=wrap;connectable=1;strokeColor=inherit;overflow=hidden;fillColor=none;top=0;left=0;bottom=0;right=0;pointerEvents=1;fontSize=16;movable=1;resizable=1;rotatable=1;deletable=1;editable=1;locked=0;" vertex="1" parent="LE8xdL_ExhfQRllUuAMV-41">
          <mxGeometry x="26" width="104" height="64" as="geometry">
            <mxRectangle width="104" height="64" as="alternateBounds" />
          </mxGeometry>
        </mxCell>
        <mxCell id="LE8xdL_ExhfQRllUuAMV-44" value="14,5KB" style="shape=partialRectangle;html=1;whiteSpace=wrap;connectable=1;strokeColor=inherit;overflow=hidden;fillColor=none;top=0;left=0;bottom=0;right=0;pointerEvents=1;fontSize=16;movable=1;resizable=1;rotatable=1;deletable=1;editable=1;locked=0;" vertex="1" parent="LE8xdL_ExhfQRllUuAMV-41">
          <mxGeometry x="130" width="60" height="64" as="geometry">
            <mxRectangle width="60" height="64" as="alternateBounds" />
          </mxGeometry>
        </mxCell>
        <mxCell id="LE8xdL_ExhfQRllUuAMV-45" value="SE Rom Region (SE functions)" style="shape=partialRectangle;html=1;whiteSpace=wrap;connectable=1;strokeColor=#B20000;overflow=hidden;fillColor=#e51400;top=0;left=0;bottom=0;right=0;pointerEvents=1;fontSize=16;movable=1;resizable=1;rotatable=1;deletable=1;editable=1;locked=0;fontColor=#ffffff;" vertex="1" parent="LE8xdL_ExhfQRllUuAMV-41">
          <mxGeometry x="190" width="290" height="64" as="geometry">
            <mxRectangle width="290" height="64" as="alternateBounds" />
          </mxGeometry>
        </mxCell>
        <mxCell id="LE8xdL_ExhfQRllUuAMV-46" style="shape=tableRow;horizontal=0;startSize=0;swimlaneHead=0;swimlaneBody=0;strokeColor=inherit;top=0;left=0;bottom=0;right=0;collapsible=0;dropTarget=0;fillColor=none;points=[[0,0.5],[1,0.5]];portConstraint=eastwest;fontSize=16;movable=1;resizable=1;rotatable=1;deletable=1;editable=1;locked=0;connectable=1;" vertex="1" parent="LE8xdL_ExhfQRllUuAMV-13">
          <mxGeometry y="170" width="480" height="30" as="geometry" />
        </mxCell>
        <mxCell id="LE8xdL_ExhfQRllUuAMV-47" value="Sector 1+2" style="shape=partialRectangle;html=1;whiteSpace=wrap;connectable=1;strokeColor=inherit;overflow=hidden;fillColor=none;top=0;left=0;bottom=0;right=0;pointerEvents=1;fontSize=16;movable=1;resizable=1;rotatable=1;deletable=1;editable=1;locked=0;rowspan=2;colspan=1;horizontal=0;" vertex="1" parent="LE8xdL_ExhfQRllUuAMV-46">
          <mxGeometry width="26" height="120" as="geometry">
            <mxRectangle width="26" height="30" as="alternateBounds" />
          </mxGeometry>
        </mxCell>
        <mxCell id="LE8xdL_ExhfQRllUuAMV-48" value="0x08004000" style="shape=partialRectangle;html=1;whiteSpace=wrap;connectable=1;strokeColor=inherit;overflow=hidden;fillColor=none;top=0;left=0;bottom=0;right=0;pointerEvents=1;fontSize=16;movable=1;resizable=1;rotatable=1;deletable=1;editable=1;locked=0;" vertex="1" parent="LE8xdL_ExhfQRllUuAMV-46">
          <mxGeometry x="26" width="104" height="30" as="geometry">
            <mxRectangle width="104" height="30" as="alternateBounds" />
          </mxGeometry>
        </mxCell>
        <mxCell id="LE8xdL_ExhfQRllUuAMV-49" value="2,25KB" style="shape=partialRectangle;html=1;whiteSpace=wrap;connectable=1;strokeColor=inherit;overflow=hidden;fillColor=none;top=0;left=0;bottom=0;right=0;pointerEvents=1;fontSize=16;movable=1;resizable=1;rotatable=1;deletable=1;editable=1;locked=0;" vertex="1" parent="LE8xdL_ExhfQRllUuAMV-46">
          <mxGeometry x="130" width="60" height="30" as="geometry">
            <mxRectangle width="60" height="30" as="alternateBounds" />
          </mxGeometry>
        </mxCell>
        <mxCell id="LE8xdL_ExhfQRllUuAMV-50" value="SE Interface" style="shape=partialRectangle;html=1;whiteSpace=wrap;connectable=1;strokeColor=#006EAF;overflow=hidden;fillColor=#1ba1e2;top=0;left=0;bottom=0;right=0;pointerEvents=1;fontSize=16;movable=1;resizable=1;rotatable=1;deletable=1;editable=1;locked=0;fontColor=#ffffff;" vertex="1" parent="LE8xdL_ExhfQRllUuAMV-46">
          <mxGeometry x="190" width="290" height="30" as="geometry">
            <mxRectangle width="290" height="30" as="alternateBounds" />
          </mxGeometry>
        </mxCell>
        <mxCell id="LE8xdL_ExhfQRllUuAMV-51" style="shape=tableRow;horizontal=0;startSize=0;swimlaneHead=0;swimlaneBody=0;strokeColor=inherit;top=0;left=0;bottom=0;right=0;collapsible=0;dropTarget=0;fillColor=none;points=[[0,0.5],[1,0.5]];portConstraint=eastwest;fontSize=16;movable=1;resizable=1;rotatable=1;deletable=1;editable=1;locked=0;connectable=1;" vertex="1" parent="LE8xdL_ExhfQRllUuAMV-13">
          <mxGeometry y="200" width="480" height="90" as="geometry" />
        </mxCell>
        <mxCell id="LE8xdL_ExhfQRllUuAMV-52" style="shape=partialRectangle;html=1;whiteSpace=wrap;connectable=1;strokeColor=inherit;overflow=hidden;fillColor=none;top=0;left=0;bottom=0;right=0;pointerEvents=1;fontSize=16;movable=1;resizable=1;rotatable=1;deletable=1;editable=1;locked=0;" vertex="1" visible="0" parent="LE8xdL_ExhfQRllUuAMV-51">
          <mxGeometry width="26" height="90" as="geometry">
            <mxRectangle width="26" height="90" as="alternateBounds" />
          </mxGeometry>
        </mxCell>
        <mxCell id="LE8xdL_ExhfQRllUuAMV-53" value="0x08004900" style="shape=partialRectangle;html=1;whiteSpace=wrap;connectable=1;strokeColor=inherit;overflow=hidden;fillColor=none;top=0;left=0;bottom=0;right=0;pointerEvents=1;fontSize=16;movable=1;resizable=1;rotatable=1;deletable=1;editable=1;locked=0;" vertex="1" parent="LE8xdL_ExhfQRllUuAMV-51">
          <mxGeometry x="26" width="104" height="90" as="geometry">
            <mxRectangle width="104" height="90" as="alternateBounds" />
          </mxGeometry>
        </mxCell>
        <mxCell id="LE8xdL_ExhfQRllUuAMV-54" value="29,75" style="shape=partialRectangle;html=1;whiteSpace=wrap;connectable=1;strokeColor=inherit;overflow=hidden;fillColor=none;top=0;left=0;bottom=0;right=0;pointerEvents=1;fontSize=16;movable=1;resizable=1;rotatable=1;deletable=1;editable=1;locked=0;" vertex="1" parent="LE8xdL_ExhfQRllUuAMV-51">
          <mxGeometry x="130" width="60" height="90" as="geometry">
            <mxRectangle width="60" height="90" as="alternateBounds" />
          </mxGeometry>
        </mxCell>
        <mxCell id="LE8xdL_ExhfQRllUuAMV-55" value="SBSFU Rom&amp;nbsp;" style="shape=partialRectangle;html=1;whiteSpace=wrap;connectable=1;strokeColor=#006EAF;overflow=hidden;fillColor=#1ba1e2;top=0;left=0;bottom=0;right=0;pointerEvents=1;fontSize=16;movable=1;resizable=1;rotatable=1;deletable=1;editable=1;locked=0;fontColor=#ffffff;" vertex="1" parent="LE8xdL_ExhfQRllUuAMV-51">
          <mxGeometry x="190" width="290" height="90" as="geometry">
            <mxRectangle width="290" height="90" as="alternateBounds" />
          </mxGeometry>
        </mxCell>
        <mxCell id="LE8xdL_ExhfQRllUuAMV-56" style="shape=tableRow;horizontal=0;startSize=0;swimlaneHead=0;swimlaneBody=0;strokeColor=inherit;top=0;left=0;bottom=0;right=0;collapsible=0;dropTarget=0;fillColor=none;points=[[0,0.5],[1,0.5]];portConstraint=eastwest;fontSize=16;movable=1;resizable=1;rotatable=1;deletable=1;editable=1;locked=0;connectable=1;" vertex="1" parent="LE8xdL_ExhfQRllUuAMV-13">
          <mxGeometry y="290" width="480" height="70" as="geometry" />
        </mxCell>
        <mxCell id="LE8xdL_ExhfQRllUuAMV-57" value="Sector 3" style="shape=partialRectangle;html=1;whiteSpace=wrap;connectable=1;strokeColor=inherit;overflow=hidden;fillColor=none;top=0;left=0;bottom=0;right=0;pointerEvents=1;fontSize=16;movable=1;resizable=1;rotatable=1;deletable=1;editable=1;locked=0;horizontal=0;" vertex="1" parent="LE8xdL_ExhfQRllUuAMV-56">
          <mxGeometry width="26" height="70" as="geometry">
            <mxRectangle width="26" height="70" as="alternateBounds" />
          </mxGeometry>
        </mxCell>
        <mxCell id="LE8xdL_ExhfQRllUuAMV-58" value="0x0800C000" style="shape=partialRectangle;html=1;whiteSpace=wrap;connectable=1;strokeColor=inherit;overflow=hidden;fillColor=none;top=0;left=0;bottom=0;right=0;pointerEvents=1;fontSize=16;movable=1;resizable=1;rotatable=1;deletable=1;editable=1;locked=0;" vertex="1" parent="LE8xdL_ExhfQRllUuAMV-56">
          <mxGeometry x="26" width="104" height="70" as="geometry">
            <mxRectangle width="104" height="70" as="alternateBounds" />
          </mxGeometry>
        </mxCell>
        <mxCell id="LE8xdL_ExhfQRllUuAMV-59" value="16KB" style="shape=partialRectangle;html=1;whiteSpace=wrap;connectable=1;strokeColor=inherit;overflow=hidden;fillColor=none;top=0;left=0;bottom=0;right=0;pointerEvents=1;fontSize=16;movable=1;resizable=1;rotatable=1;deletable=1;editable=1;locked=0;" vertex="1" parent="LE8xdL_ExhfQRllUuAMV-56">
          <mxGeometry x="130" width="60" height="70" as="geometry">
            <mxRectangle width="60" height="70" as="alternateBounds" />
          </mxGeometry>
        </mxCell>
        <mxCell id="LE8xdL_ExhfQRllUuAMV-60" value="Constants" style="shape=partialRectangle;html=1;whiteSpace=wrap;connectable=1;strokeColor=#B09500;overflow=hidden;fillColor=#e3c800;top=0;left=0;bottom=0;right=0;pointerEvents=1;fontSize=16;movable=1;resizable=1;rotatable=1;deletable=1;editable=1;locked=0;fontColor=#000000;" vertex="1" parent="LE8xdL_ExhfQRllUuAMV-56">
          <mxGeometry x="190" width="290" height="70" as="geometry">
            <mxRectangle width="290" height="70" as="alternateBounds" />
          </mxGeometry>
        </mxCell>
        <mxCell id="LE8xdL_ExhfQRllUuAMV-61" style="shape=tableRow;horizontal=0;startSize=0;swimlaneHead=0;swimlaneBody=0;strokeColor=inherit;top=0;left=0;bottom=0;right=0;collapsible=0;dropTarget=0;fillColor=none;points=[[0,0.5],[1,0.5]];portConstraint=eastwest;fontSize=16;movable=1;resizable=1;rotatable=1;deletable=1;editable=1;locked=0;connectable=1;" vertex="1" parent="LE8xdL_ExhfQRllUuAMV-13">
          <mxGeometry y="360" width="480" height="90" as="geometry" />
        </mxCell>
        <mxCell id="LE8xdL_ExhfQRllUuAMV-62" value="Sector 4" style="shape=partialRectangle;html=1;whiteSpace=wrap;connectable=1;strokeColor=inherit;overflow=hidden;fillColor=none;top=0;left=0;bottom=0;right=0;pointerEvents=1;fontSize=16;movable=1;resizable=1;rotatable=1;deletable=1;editable=1;locked=0;horizontal=0;" vertex="1" parent="LE8xdL_ExhfQRllUuAMV-61">
          <mxGeometry width="26" height="90" as="geometry">
            <mxRectangle width="26" height="90" as="alternateBounds" />
          </mxGeometry>
        </mxCell>
        <mxCell id="LE8xdL_ExhfQRllUuAMV-63" value="0x08010000" style="shape=partialRectangle;html=1;whiteSpace=wrap;connectable=1;strokeColor=inherit;overflow=hidden;fillColor=none;top=0;left=0;bottom=0;right=0;pointerEvents=1;fontSize=16;movable=1;resizable=1;rotatable=1;deletable=1;editable=1;locked=0;" vertex="1" parent="LE8xdL_ExhfQRllUuAMV-61">
          <mxGeometry x="26" width="104" height="90" as="geometry">
            <mxRectangle width="104" height="90" as="alternateBounds" />
          </mxGeometry>
        </mxCell>
        <mxCell id="LE8xdL_ExhfQRllUuAMV-64" value="64KB" style="shape=partialRectangle;html=1;whiteSpace=wrap;connectable=1;strokeColor=inherit;overflow=hidden;fillColor=none;top=0;left=0;bottom=0;right=0;pointerEvents=1;fontSize=16;movable=1;resizable=1;rotatable=1;deletable=1;editable=1;locked=0;" vertex="1" parent="LE8xdL_ExhfQRllUuAMV-61">
          <mxGeometry x="130" width="60" height="90" as="geometry">
            <mxRectangle width="60" height="90" as="alternateBounds" />
          </mxGeometry>
        </mxCell>
        <mxCell id="LE8xdL_ExhfQRllUuAMV-65" value="DATA" style="shape=partialRectangle;html=1;whiteSpace=wrap;connectable=1;strokeColor=#B09500;overflow=hidden;fillColor=#e3c800;top=0;left=0;bottom=0;right=0;pointerEvents=1;fontSize=16;movable=1;resizable=1;rotatable=1;deletable=1;editable=1;locked=0;fontColor=#000000;" vertex="1" parent="LE8xdL_ExhfQRllUuAMV-61">
          <mxGeometry x="190" width="290" height="90" as="geometry">
            <mxRectangle width="290" height="90" as="alternateBounds" />
          </mxGeometry>
        </mxCell>
        <mxCell id="LE8xdL_ExhfQRllUuAMV-66" style="shape=tableRow;horizontal=0;startSize=0;swimlaneHead=0;swimlaneBody=0;strokeColor=inherit;top=0;left=0;bottom=0;right=0;collapsible=0;dropTarget=0;fillColor=none;points=[[0,0.5],[1,0.5]];portConstraint=eastwest;fontSize=16;movable=1;resizable=1;rotatable=1;deletable=1;editable=1;locked=0;connectable=1;" vertex="1" parent="LE8xdL_ExhfQRllUuAMV-13">
          <mxGeometry y="450" width="480" height="20" as="geometry" />
        </mxCell>
        <mxCell id="LE8xdL_ExhfQRllUuAMV-67" value="Sector 5-7" style="shape=partialRectangle;html=1;whiteSpace=wrap;connectable=1;strokeColor=inherit;overflow=hidden;fillColor=none;top=0;left=0;bottom=0;right=0;pointerEvents=1;fontSize=16;movable=1;resizable=1;rotatable=1;deletable=1;editable=1;locked=0;rowspan=3;colspan=1;horizontal=0;" vertex="1" parent="LE8xdL_ExhfQRllUuAMV-66">
          <mxGeometry width="26" height="200" as="geometry">
            <mxRectangle width="26" height="20" as="alternateBounds" />
          </mxGeometry>
        </mxCell>
        <mxCell id="LE8xdL_ExhfQRllUuAMV-68" value="0x08020000" style="shape=partialRectangle;html=1;whiteSpace=wrap;connectable=1;strokeColor=inherit;overflow=hidden;fillColor=none;top=0;left=0;bottom=0;right=0;pointerEvents=1;fontSize=16;movable=1;resizable=1;rotatable=1;deletable=1;editable=1;locked=0;" vertex="1" parent="LE8xdL_ExhfQRllUuAMV-66">
          <mxGeometry x="26" width="104" height="20" as="geometry">
            <mxRectangle width="104" height="20" as="alternateBounds" />
          </mxGeometry>
        </mxCell>
        <mxCell id="LE8xdL_ExhfQRllUuAMV-69" value="515B" style="shape=partialRectangle;html=1;whiteSpace=wrap;connectable=1;strokeColor=inherit;overflow=hidden;fillColor=none;top=0;left=0;bottom=0;right=0;pointerEvents=1;fontSize=16;movable=1;resizable=1;rotatable=1;deletable=1;editable=1;locked=0;" vertex="1" parent="LE8xdL_ExhfQRllUuAMV-66">
          <mxGeometry x="130" width="60" height="20" as="geometry">
            <mxRectangle width="60" height="20" as="alternateBounds" />
          </mxGeometry>
        </mxCell>
        <mxCell id="LE8xdL_ExhfQRllUuAMV-70" value="Firmware Header" style="shape=partialRectangle;html=1;whiteSpace=wrap;connectable=1;strokeColor=#2D7600;overflow=hidden;fillColor=#60a917;top=0;left=0;bottom=0;right=0;pointerEvents=1;fontSize=16;movable=1;resizable=1;rotatable=1;deletable=1;editable=1;locked=0;fontColor=#ffffff;" vertex="1" parent="LE8xdL_ExhfQRllUuAMV-66">
          <mxGeometry x="190" width="290" height="20" as="geometry">
            <mxRectangle width="290" height="20" as="alternateBounds" />
          </mxGeometry>
        </mxCell>
        <mxCell id="LE8xdL_ExhfQRllUuAMV-71" style="shape=tableRow;horizontal=0;startSize=0;swimlaneHead=0;swimlaneBody=0;strokeColor=inherit;top=0;left=0;bottom=0;right=0;collapsible=0;dropTarget=0;fillColor=none;points=[[0,0.5],[1,0.5]];portConstraint=eastwest;fontSize=16;movable=1;resizable=1;rotatable=1;deletable=1;editable=1;locked=0;connectable=1;" vertex="1" parent="LE8xdL_ExhfQRllUuAMV-13">
          <mxGeometry y="470" width="480" height="20" as="geometry" />
        </mxCell>
        <mxCell id="LE8xdL_ExhfQRllUuAMV-72" style="shape=partialRectangle;html=1;whiteSpace=wrap;connectable=1;strokeColor=inherit;overflow=hidden;fillColor=none;top=0;left=0;bottom=0;right=0;pointerEvents=1;fontSize=16;movable=1;resizable=1;rotatable=1;deletable=1;editable=1;locked=0;" vertex="1" visible="0" parent="LE8xdL_ExhfQRllUuAMV-71">
          <mxGeometry width="26" height="20" as="geometry">
            <mxRectangle width="26" height="20" as="alternateBounds" />
          </mxGeometry>
        </mxCell>
        <mxCell id="LE8xdL_ExhfQRllUuAMV-73" value="0x08020200" style="shape=partialRectangle;html=1;whiteSpace=wrap;connectable=1;strokeColor=inherit;overflow=hidden;fillColor=none;top=0;left=0;bottom=0;right=0;pointerEvents=1;fontSize=16;movable=1;resizable=1;rotatable=1;deletable=1;editable=1;locked=0;" vertex="1" parent="LE8xdL_ExhfQRllUuAMV-71">
          <mxGeometry x="26" width="104" height="20" as="geometry">
            <mxRectangle width="104" height="20" as="alternateBounds" />
          </mxGeometry>
        </mxCell>
        <mxCell id="LE8xdL_ExhfQRllUuAMV-74" value="512B" style="shape=partialRectangle;html=1;whiteSpace=wrap;connectable=1;strokeColor=inherit;overflow=hidden;fillColor=none;top=0;left=0;bottom=0;right=0;pointerEvents=1;fontSize=16;movable=1;resizable=1;rotatable=1;deletable=1;editable=1;locked=0;" vertex="1" parent="LE8xdL_ExhfQRllUuAMV-71">
          <mxGeometry x="130" width="60" height="20" as="geometry">
            <mxRectangle width="60" height="20" as="alternateBounds" />
          </mxGeometry>
        </mxCell>
        <mxCell id="LE8xdL_ExhfQRllUuAMV-75" value="Firmware Vector Table" style="shape=partialRectangle;html=1;whiteSpace=wrap;connectable=1;strokeColor=#2D7600;overflow=hidden;fillColor=#60a917;top=0;left=0;bottom=0;right=0;pointerEvents=1;fontSize=16;movable=1;resizable=1;rotatable=1;deletable=1;editable=1;locked=0;fontColor=#ffffff;" vertex="1" parent="LE8xdL_ExhfQRllUuAMV-71">
          <mxGeometry x="190" width="290" height="20" as="geometry">
            <mxRectangle width="290" height="20" as="alternateBounds" />
          </mxGeometry>
        </mxCell>
        <mxCell id="LE8xdL_ExhfQRllUuAMV-76" style="shape=tableRow;horizontal=0;startSize=0;swimlaneHead=0;swimlaneBody=0;strokeColor=inherit;top=0;left=0;bottom=0;right=0;collapsible=0;dropTarget=0;fillColor=none;points=[[0,0.5],[1,0.5]];portConstraint=eastwest;fontSize=16;movable=1;resizable=1;rotatable=1;deletable=1;editable=1;locked=0;connectable=1;" vertex="1" parent="LE8xdL_ExhfQRllUuAMV-13">
          <mxGeometry y="490" width="480" height="160" as="geometry" />
        </mxCell>
        <mxCell id="LE8xdL_ExhfQRllUuAMV-77" style="shape=partialRectangle;html=1;whiteSpace=wrap;connectable=1;strokeColor=inherit;overflow=hidden;fillColor=none;top=0;left=0;bottom=0;right=0;pointerEvents=1;fontSize=16;movable=1;resizable=1;rotatable=1;deletable=1;editable=1;locked=0;" vertex="1" visible="0" parent="LE8xdL_ExhfQRllUuAMV-76">
          <mxGeometry width="26" height="160" as="geometry">
            <mxRectangle width="26" height="160" as="alternateBounds" />
          </mxGeometry>
        </mxCell>
        <mxCell id="LE8xdL_ExhfQRllUuAMV-78" value="0x08020400" style="shape=partialRectangle;html=1;whiteSpace=wrap;connectable=1;strokeColor=inherit;overflow=hidden;fillColor=none;top=0;left=0;bottom=0;right=0;pointerEvents=1;fontSize=16;movable=1;resizable=1;rotatable=1;deletable=1;editable=1;locked=0;" vertex="1" parent="LE8xdL_ExhfQRllUuAMV-76">
          <mxGeometry x="26" width="104" height="160" as="geometry">
            <mxRectangle width="104" height="160" as="alternateBounds" />
          </mxGeometry>
        </mxCell>
        <mxCell id="LE8xdL_ExhfQRllUuAMV-79" value="255KB" style="shape=partialRectangle;html=1;whiteSpace=wrap;connectable=1;strokeColor=inherit;overflow=hidden;fillColor=none;top=0;left=0;bottom=0;right=0;pointerEvents=1;fontSize=16;movable=1;resizable=1;rotatable=1;deletable=1;editable=1;locked=0;" vertex="1" parent="LE8xdL_ExhfQRllUuAMV-76">
          <mxGeometry x="130" width="60" height="160" as="geometry">
            <mxRectangle width="60" height="160" as="alternateBounds" />
          </mxGeometry>
        </mxCell>
        <mxCell id="LE8xdL_ExhfQRllUuAMV-80" value="Firmware" style="shape=partialRectangle;html=1;whiteSpace=wrap;connectable=1;strokeColor=#2D7600;overflow=hidden;fillColor=#60a917;top=0;left=0;bottom=0;right=0;pointerEvents=1;fontSize=16;movable=1;resizable=1;rotatable=1;deletable=1;editable=1;locked=0;fontColor=#ffffff;" vertex="1" parent="LE8xdL_ExhfQRllUuAMV-76">
          <mxGeometry x="190" width="290" height="160" as="geometry">
            <mxRectangle width="290" height="160" as="alternateBounds" />
          </mxGeometry>
        </mxCell>
        <mxCell id="LE8xdL_ExhfQRllUuAMV-81" value="" style="shape=table;startSize=0;container=1;collapsible=0;childLayout=tableLayout;fontSize=16;" vertex="1" parent="WIyWlLk6GJQsqaUBKTNV-1">
          <mxGeometry x="510" y="300" width="290" height="237" as="geometry" />
        </mxCell>
        <mxCell id="LE8xdL_ExhfQRllUuAMV-82" value="" style="shape=tableRow;horizontal=0;startSize=0;swimlaneHead=0;swimlaneBody=0;strokeColor=inherit;top=0;left=0;bottom=0;right=0;collapsible=0;dropTarget=0;fillColor=none;points=[[0,0.5],[1,0.5]];portConstraint=eastwest;fontSize=16;" vertex="1" parent="LE8xdL_ExhfQRllUuAMV-81">
          <mxGeometry width="290" height="20" as="geometry" />
        </mxCell>
        <mxCell id="LE8xdL_ExhfQRllUuAMV-83" value="Adress" style="shape=partialRectangle;html=1;whiteSpace=wrap;connectable=0;strokeColor=inherit;overflow=hidden;fillColor=none;top=0;left=0;bottom=0;right=0;pointerEvents=1;fontSize=16;" vertex="1" parent="LE8xdL_ExhfQRllUuAMV-82">
          <mxGeometry width="100" height="20" as="geometry">
            <mxRectangle width="100" height="20" as="alternateBounds" />
          </mxGeometry>
        </mxCell>
        <mxCell id="LE8xdL_ExhfQRllUuAMV-84" value="Size" style="shape=partialRectangle;html=1;whiteSpace=wrap;connectable=0;strokeColor=inherit;overflow=hidden;fillColor=none;top=0;left=0;bottom=0;right=0;pointerEvents=1;fontSize=16;" vertex="1" parent="LE8xdL_ExhfQRllUuAMV-82">
          <mxGeometry x="100" width="50" height="20" as="geometry">
            <mxRectangle width="50" height="20" as="alternateBounds" />
          </mxGeometry>
        </mxCell>
        <mxCell id="LE8xdL_ExhfQRllUuAMV-85" value="Name" style="shape=partialRectangle;html=1;whiteSpace=wrap;connectable=0;strokeColor=inherit;overflow=hidden;fillColor=none;top=0;left=0;bottom=0;right=0;pointerEvents=1;fontSize=16;" vertex="1" parent="LE8xdL_ExhfQRllUuAMV-82">
          <mxGeometry x="150" width="140" height="20" as="geometry">
            <mxRectangle width="140" height="20" as="alternateBounds" />
          </mxGeometry>
        </mxCell>
        <mxCell id="LE8xdL_ExhfQRllUuAMV-86" value="" style="shape=tableRow;horizontal=0;startSize=0;swimlaneHead=0;swimlaneBody=0;strokeColor=inherit;top=0;left=0;bottom=0;right=0;collapsible=0;dropTarget=0;fillColor=none;points=[[0,0.5],[1,0.5]];portConstraint=eastwest;fontSize=16;" vertex="1" parent="LE8xdL_ExhfQRllUuAMV-81">
          <mxGeometry y="20" width="290" height="27" as="geometry" />
        </mxCell>
        <mxCell id="LE8xdL_ExhfQRllUuAMV-87" value="0x20000000" style="shape=partialRectangle;html=1;whiteSpace=wrap;connectable=0;strokeColor=inherit;overflow=hidden;fillColor=none;top=0;left=0;bottom=0;right=0;pointerEvents=1;fontSize=16;" vertex="1" parent="LE8xdL_ExhfQRllUuAMV-86">
          <mxGeometry width="100" height="27" as="geometry">
            <mxRectangle width="100" height="27" as="alternateBounds" />
          </mxGeometry>
        </mxCell>
        <mxCell id="LE8xdL_ExhfQRllUuAMV-88" value="1KB" style="shape=partialRectangle;html=1;whiteSpace=wrap;connectable=0;strokeColor=inherit;overflow=hidden;fillColor=none;top=0;left=0;bottom=0;right=0;pointerEvents=1;fontSize=16;" vertex="1" parent="LE8xdL_ExhfQRllUuAMV-86">
          <mxGeometry x="100" width="50" height="27" as="geometry">
            <mxRectangle width="50" height="27" as="alternateBounds" />
          </mxGeometry>
        </mxCell>
        <mxCell id="LE8xdL_ExhfQRllUuAMV-89" value="SE Stack" style="shape=partialRectangle;html=1;whiteSpace=wrap;connectable=0;strokeColor=#B20000;overflow=hidden;fillColor=#e51400;top=0;left=0;bottom=0;right=0;pointerEvents=1;fontSize=16;fontColor=#ffffff;" vertex="1" parent="LE8xdL_ExhfQRllUuAMV-86">
          <mxGeometry x="150" width="140" height="27" as="geometry">
            <mxRectangle width="140" height="27" as="alternateBounds" />
          </mxGeometry>
        </mxCell>
        <mxCell id="LE8xdL_ExhfQRllUuAMV-90" value="" style="shape=tableRow;horizontal=0;startSize=0;swimlaneHead=0;swimlaneBody=0;strokeColor=inherit;top=0;left=0;bottom=0;right=0;collapsible=0;dropTarget=0;fillColor=none;points=[[0,0.5],[1,0.5]];portConstraint=eastwest;fontSize=16;" vertex="1" parent="LE8xdL_ExhfQRllUuAMV-81">
          <mxGeometry y="47" width="290" height="40" as="geometry" />
        </mxCell>
        <mxCell id="LE8xdL_ExhfQRllUuAMV-91" value="0x20000400" style="shape=partialRectangle;html=1;whiteSpace=wrap;connectable=0;strokeColor=inherit;overflow=hidden;fillColor=none;top=0;left=0;bottom=0;right=0;pointerEvents=1;fontSize=16;" vertex="1" parent="LE8xdL_ExhfQRllUuAMV-90">
          <mxGeometry width="100" height="40" as="geometry">
            <mxRectangle width="100" height="40" as="alternateBounds" />
          </mxGeometry>
        </mxCell>
        <mxCell id="LE8xdL_ExhfQRllUuAMV-92" value="3KB" style="shape=partialRectangle;html=1;whiteSpace=wrap;connectable=0;strokeColor=inherit;overflow=hidden;fillColor=none;top=0;left=0;bottom=0;right=0;pointerEvents=1;fontSize=16;" vertex="1" parent="LE8xdL_ExhfQRllUuAMV-90">
          <mxGeometry x="100" width="50" height="40" as="geometry">
            <mxRectangle width="50" height="40" as="alternateBounds" />
          </mxGeometry>
        </mxCell>
        <mxCell id="LE8xdL_ExhfQRllUuAMV-93" value="SE Ram" style="shape=partialRectangle;html=1;whiteSpace=wrap;connectable=0;strokeColor=#B20000;overflow=hidden;fillColor=#e51400;top=0;left=0;bottom=0;right=0;pointerEvents=1;fontSize=16;fontColor=#ffffff;" vertex="1" parent="LE8xdL_ExhfQRllUuAMV-90">
          <mxGeometry x="150" width="140" height="40" as="geometry">
            <mxRectangle width="140" height="40" as="alternateBounds" />
          </mxGeometry>
        </mxCell>
        <mxCell id="LE8xdL_ExhfQRllUuAMV-94" style="shape=tableRow;horizontal=0;startSize=0;swimlaneHead=0;swimlaneBody=0;strokeColor=inherit;top=0;left=0;bottom=0;right=0;collapsible=0;dropTarget=0;fillColor=none;points=[[0,0.5],[1,0.5]];portConstraint=eastwest;fontSize=16;" vertex="1" parent="LE8xdL_ExhfQRllUuAMV-81">
          <mxGeometry y="87" width="290" height="150" as="geometry" />
        </mxCell>
        <mxCell id="LE8xdL_ExhfQRllUuAMV-95" value="0x20001000" style="shape=partialRectangle;html=1;whiteSpace=wrap;connectable=0;strokeColor=inherit;overflow=hidden;fillColor=none;top=0;left=0;bottom=0;right=0;pointerEvents=1;fontSize=16;" vertex="1" parent="LE8xdL_ExhfQRllUuAMV-94">
          <mxGeometry width="100" height="150" as="geometry">
            <mxRectangle width="100" height="150" as="alternateBounds" />
          </mxGeometry>
        </mxCell>
        <mxCell id="LE8xdL_ExhfQRllUuAMV-96" value="108KB" style="shape=partialRectangle;html=1;whiteSpace=wrap;connectable=0;strokeColor=inherit;overflow=hidden;fillColor=none;top=0;left=0;bottom=0;right=0;pointerEvents=1;fontSize=16;" vertex="1" parent="LE8xdL_ExhfQRllUuAMV-94">
          <mxGeometry x="100" width="50" height="150" as="geometry">
            <mxRectangle width="50" height="150" as="alternateBounds" />
          </mxGeometry>
        </mxCell>
        <mxCell id="LE8xdL_ExhfQRllUuAMV-97" value="SBFU RAM&lt;br&gt;---&lt;br&gt;TIS-Software&lt;span style=&quot;background-color: initial;&quot;&gt;&amp;nbsp;RAM&lt;/span&gt;" style="shape=partialRectangle;html=1;whiteSpace=wrap;connectable=0;overflow=hidden;top=0;left=0;bottom=0;right=0;pointerEvents=1;fontSize=16;gradientColor=#1BA1E2;fillColor=#60A917;" vertex="1" parent="LE8xdL_ExhfQRllUuAMV-94">
          <mxGeometry x="150" width="140" height="150" as="geometry">
            <mxRectangle width="140" height="150" as="alternateBounds" />
          </mxGeometry>
        </mxCell>
      </root>
    </mxGraphModel>
  </diagram>
</mxfile>
